# xmcd
#
# Track frame offsets:
#	150
#	25160
#	46362
#	63145
#	83210
#	100082
#	129392
#	148795
#	170812
#	194527
#
# Disc length: 2872 seconds
#
# Revision: 1
# Processed by: cddbd v1.5.1PL2 Copyright (c) Steve Scherf et al.
# Submitted via: audiograbber 1.83.01
#
DISCID=880b360a
DTITLE=EXIT 232 - highway of life
DYEAR=2003
DGENRE=Country
TTITLE0=fly away
TTITLE1=face down
TTITLE2=mystic highway
TTITLE3=fathers's song
TTITLE4=ancient words
TTITLE5=set her free
TTITLE6=grains of sand
TTITLE7=the one
TTITLE8=drivin' blind
TTITLE9=i will find you
EXTD=www.exit232.com
EXTT0=
EXTT1=
EXTT2=
EXTT3=
EXTT4=
EXTT5=
EXTT6=
EXTT7=
EXTT8=
EXTT9=
PLAYORDER=
